<svg width="174" height="39" viewBox="0 0 174 39" fill="none" xmlns="http://www.w3.org/2000/svg">
<path d="M16.043 26.8064C13.8667 25.998 11.6281 25.8737 9.57614 26.4333C8.14596 26.8064 6.77796 27.5526 5.53432 28.4853L4.66376 29.2315L4.41504 29.4802L4.97467 29.9777C5.03685 29.9777 5.03686 30.0399 5.09904 30.102C5.22341 30.2264 5.34778 30.2886 5.53432 30.4129L5.9074 30.6617L6.28049 30.3508C6.34268 30.2886 6.46704 30.1642 6.5914 30.102C7.71068 29.1693 8.95431 28.5475 10.2601 28.2366C11.939 27.8013 13.7423 27.8635 15.5456 28.5475C17.0379 29.1071 20.0849 29.7911 23.7536 28.2366L23.878 28.1744L24.0645 27.9879C24.0645 27.9257 24.1267 27.9257 24.1889 27.8635C24.4998 27.4904 24.8107 27.1173 25.0594 26.682L26.303 24.7544L24.3132 25.8737C21.3907 27.4904 18.7169 27.8013 16.043 26.8064Z" fill="#55B02E"/>
<path d="M7.52364 20.0906C9.20255 19.6553 11.0058 19.7175 12.8091 20.4015C14.7989 21.1477 19.8978 22.2048 25.6186 17.0437L26.5513 16.111L26.6135 16.0488L26.8622 15.8001L26.7378 15.4891C26.6756 15.2404 26.5513 14.9295 26.4269 14.6186L26.116 13.748L25.4942 14.3699C25.432 14.4942 25.3076 14.5564 25.1833 14.6808C22.4473 17.479 18.2189 20.3393 13.3687 18.5982C11.1924 17.7899 8.95382 17.6655 6.90182 18.2251C4.91201 18.7848 3.17091 19.8419 1.55418 21.3342V21.2721L0.621456 22.267C0.621456 22.3291 0.559286 22.3292 0.497104 22.3913L0.310547 22.5779L0.372732 22.8266C0.434914 23.1375 0.559274 23.4484 0.621456 23.7593L0.994551 24.7542L1.61637 23.9459C1.67855 23.8215 1.80291 23.7593 1.86509 23.635C3.17091 22.4535 4.97419 20.7746 7.52364 20.0906Z" fill="#55B02E"/>
<path d="M1.49238 18.9715C2.92256 17.4792 4.53928 16.5464 6.28037 16.049C7.95928 15.6137 9.76255 15.6759 11.5658 16.3599C17.1622 18.4119 22.0124 15.0541 24.1266 13.2508L24.9349 12.4424L25.2458 12.1937L24.9971 11.8206C24.8106 11.6341 24.6862 11.3854 24.4997 11.1366L24.1266 10.6392L23.6913 11.0744C23.6291 11.1366 23.5047 11.261 23.4426 11.3232C20.8309 13.8104 16.7891 16.3599 12.1876 14.6188C10.0113 13.8104 7.77273 13.6861 5.72074 14.2457C4.41492 14.6188 3.17128 15.2406 1.92764 16.049L0.621818 17.1061C0.497455 17.2304 0.435273 17.2926 0.310909 17.417L0.186557 17.5413V17.7279C0.124375 18.1632 0.124367 18.5984 0.0621856 18.9715L0 20.5261L1.0571 19.4068C1.18146 19.2824 1.30583 19.0959 1.49238 18.9715Z" fill="#55B02E"/>
<path d="M17.8466 31.0349L17.7222 31.408L17.8466 31.0349C17.66 30.9727 17.5357 30.9105 17.3491 30.8483C15.1728 30.04 12.9342 29.9156 10.8822 30.4753C10.4469 30.5996 10.0117 30.724 9.57639 30.9105L8.08401 31.5945L7.71094 31.7811L8.95457 32.2163C9.32766 32.3407 9.70075 32.4651 10.0738 32.5894L10.2604 32.6516L10.4469 32.5894C10.6335 32.5273 10.82 32.4029 11.0066 32.4029C11.1309 32.4029 11.2553 32.3407 11.3797 32.2785C12.872 31.9054 14.4887 31.9054 16.2298 32.4651C16.4164 32.5272 16.5408 32.5894 16.7273 32.6516L17.0382 32.776L17.2247 32.7138C17.66 32.5894 18.1575 32.4651 18.5306 32.2785L20.2717 31.6567L18.4684 31.2214C18.2818 31.1592 18.0331 31.0971 17.8466 31.0349Z" fill="#55B02E"/>
<path d="M27.3597 18.1631L26.427 19.0958C26.3027 19.2202 26.1783 19.3445 26.0539 19.4689C23.5045 21.894 19.4005 24.5056 14.799 22.7645C12.6227 21.9562 10.3841 21.8318 8.33213 22.3915C6.40449 22.9511 4.66338 23.946 3.10884 25.4384L2.30048 26.3089L2.05176 26.6198L2.30048 26.9929C2.48703 27.2416 2.6114 27.4282 2.73576 27.6769L3.10884 28.2365L3.54412 27.6769C3.6063 27.6147 3.73066 27.4904 3.79284 27.4282C5.2852 25.8114 6.90193 24.8165 8.76739 24.3191C10.4463 23.8838 12.2496 23.946 14.0528 24.63C15.6074 25.1896 17.2241 25.3762 18.8408 25.1896C21.7012 24.8787 24.5616 23.262 26.6758 21.4587C26.8001 21.3344 26.9245 21.2722 27.0488 21.1478L27.2354 20.9613V20.7747C27.2354 20.4016 27.2976 19.9664 27.2976 19.5933L27.3597 18.1631Z" fill="#55B02E"/>
<path d="M3.73045 12.4423L3.54391 12.0692L3.73045 12.4423C4.10354 12.2557 4.53883 12.1313 4.91192 12.007C6.59083 11.5717 8.3941 11.6339 10.1974 12.3179C11.3788 12.7532 12.5603 12.9397 13.8661 12.9397C16.4777 12.9397 19.0894 12.007 21.5145 10.2037L22.4472 9.45752L22.7581 9.20879L22.1985 8.77351C22.0119 8.58697 21.7632 8.40043 21.5145 8.27607L21.1414 8.02734L20.8305 8.27607C20.7061 8.33825 20.6439 8.46261 20.5195 8.52479C17.2239 11.0121 13.9283 11.6961 10.8192 10.5146C8.58065 9.70625 6.34209 9.51971 4.10355 10.2037C3.917 10.2659 3.73045 10.3281 3.48173 10.3902L3.35738 10.4524L3.17082 10.639C3.17082 10.7012 3.10865 10.7012 3.04647 10.7633C2.79774 11.1364 2.48682 11.4473 2.23809 11.8204L1.05664 13.6237L2.98428 12.6288C3.29519 12.6288 3.54391 12.5044 3.73045 12.4423Z" fill="#55B02E"/>
<path d="M8.82967 8.21393L9.01621 8.27611C9.82457 8.58702 11.0682 8.89793 12.6228 8.89793C14.2395 8.89793 15.794 8.52484 17.3486 7.90302L19.2762 6.97029L17.9704 6.53503C17.5973 6.41067 17.2242 6.2863 16.7889 6.22412H16.6024L16.4159 6.28629C16.2293 6.34847 16.0428 6.47285 15.8562 6.53503C13.9908 7.21903 12.1253 7.34339 10.322 6.84594C10.1355 6.78376 9.94894 6.72156 9.7624 6.65938L9.57586 6.5972L9.3893 6.65938C9.01621 6.78375 8.64313 6.90812 8.27004 7.09466L6.83984 7.71648L8.33222 8.15174C8.45659 8.08956 8.64312 8.15175 8.82967 8.21393Z" fill="#55B02E"/>
<path d="M49.3241 30.28C47.1028 30.28 45.2361 29.8693 43.7241 29.048C42.2121 28.2267 41.0735 27.06 40.3081 25.548C39.5428 24.036 39.1601 22.244 39.1601 20.172C39.1601 18.0813 39.5708 16.28 40.3921 14.768C41.2135 13.2373 42.3895 12.0613 43.9201 11.24C45.4695 10.4 47.3268 9.98 49.4921 9.98C50.9295 9.98 52.1895 10.176 53.2721 10.568C54.3548 10.9413 55.3068 11.492 56.1281 12.22L54.9241 15.02C54.3268 14.5533 53.7575 14.18 53.2161 13.9C52.6748 13.62 52.1148 13.424 51.5361 13.312C50.9575 13.1813 50.2855 13.116 49.5201 13.116C47.3548 13.116 45.7121 13.732 44.5921 14.964C43.4908 16.1773 42.9401 17.9227 42.9401 20.2C42.9401 22.4773 43.4628 24.2133 44.5081 25.408C45.5721 26.6027 47.2335 27.2 49.4921 27.2C50.2575 27.2 51.0228 27.1253 51.7881 26.976C52.5721 26.8267 53.3375 26.612 54.0841 26.332L53.4121 27.844V21.936H48.7921V19.304H56.4081V28.796C55.4935 29.2627 54.4015 29.6267 53.1321 29.888C51.8628 30.1493 50.5935 30.28 49.3241 30.28ZM67.0827 30.28C64.712 30.28 62.8547 29.6267 61.5107 28.32C60.1667 27.0133 59.4947 25.2213 59.4947 22.944C59.4947 21.4693 59.784 20.1813 60.3627 19.08C60.9413 17.9787 61.744 17.12 62.7707 16.504C63.816 15.888 65.0293 15.58 66.4107 15.58C67.7733 15.58 68.912 15.8693 69.8267 16.448C70.7413 17.0267 71.432 17.8387 71.8987 18.884C72.384 19.9293 72.6267 21.152 72.6267 22.552V23.476H62.3227V21.628H70.1347L69.6587 22.02C69.6587 20.7133 69.3787 19.7147 68.8187 19.024C68.2773 18.3333 67.484 17.988 66.4387 17.988C65.2813 17.988 64.3853 18.3987 63.7507 19.22C63.1347 20.0413 62.8267 21.1893 62.8267 22.664V23.028C62.8267 24.5587 63.2 25.7067 63.9467 26.472C64.712 27.2187 65.7853 27.592 67.1667 27.592C67.9693 27.592 68.716 27.4893 69.4067 27.284C70.116 27.06 70.788 26.7053 71.4227 26.22L72.4587 28.572C71.7867 29.1133 70.984 29.5333 70.0507 29.832C69.1173 30.1307 68.128 30.28 67.0827 30.28ZM80.6305 30.28C79.4172 30.28 78.2972 30.14 77.2705 29.86C76.2625 29.5613 75.4132 29.1507 74.7225 28.628L75.7025 26.276C76.4119 26.7613 77.1959 27.1347 78.0545 27.396C78.9132 27.6573 79.7812 27.788 80.6585 27.788C81.5919 27.788 82.2825 27.6293 82.7305 27.312C83.1972 26.9947 83.4305 26.5653 83.4305 26.024C83.4305 25.5947 83.2812 25.2587 82.9825 25.016C82.7025 24.7547 82.2452 24.5587 81.6105 24.428L78.8105 23.896C77.6159 23.6347 76.7012 23.1867 76.0665 22.552C75.4505 21.9173 75.1425 21.0867 75.1425 20.06C75.1425 19.1827 75.3759 18.408 75.8425 17.736C76.3279 17.064 77.0092 16.5413 77.8865 16.168C78.7825 15.776 79.8279 15.58 81.0225 15.58C82.0679 15.58 83.0479 15.72 83.9625 16C84.8959 16.28 85.6799 16.7 86.3145 17.26L85.3065 19.528C84.7279 19.0613 84.0652 18.6973 83.3185 18.436C82.5719 18.1747 81.8439 18.044 81.1345 18.044C80.1639 18.044 79.4545 18.2213 79.0065 18.576C78.5585 18.912 78.3345 19.3507 78.3345 19.892C78.3345 20.3027 78.4652 20.648 78.7265 20.928C79.0065 21.1893 79.4359 21.3853 80.0145 21.516L82.8145 22.048C84.0652 22.2907 85.0079 22.72 85.6425 23.336C86.2959 23.9333 86.6225 24.7547 86.6225 25.8C86.6225 26.7333 86.3705 27.536 85.8665 28.208C85.3625 28.88 84.6625 29.3933 83.7665 29.748C82.8705 30.1027 81.8252 30.28 80.6305 30.28ZM95.5291 30.28C93.8491 30.28 92.5798 29.8413 91.7211 28.964C90.8625 28.0867 90.4331 26.7707 90.4331 25.016V18.492H87.7171V15.86H90.4331V12.248L93.9331 11.352V15.86H97.7131V18.492H93.9331V24.792C93.9331 25.7627 94.1198 26.444 94.4931 26.836C94.8665 27.228 95.3798 27.424 96.0331 27.424C96.3878 27.424 96.6865 27.396 96.9291 27.34C97.1905 27.284 97.4425 27.2093 97.6851 27.116V29.888C97.3678 30.0187 97.0131 30.112 96.6211 30.168C96.2478 30.2427 95.8838 30.28 95.5291 30.28ZM105.551 30.28C104.319 30.28 103.236 29.9907 102.303 29.412C101.369 28.8147 100.641 27.9653 100.119 26.864C99.5959 25.7627 99.3345 24.4467 99.3345 22.916C99.3345 21.3853 99.5959 20.0787 100.119 18.996C100.641 17.8947 101.369 17.0547 102.303 16.476C103.236 15.8787 104.319 15.58 105.551 15.58C106.745 15.58 107.791 15.8787 108.687 16.476C109.601 17.0547 110.208 17.8387 110.507 18.828H110.199L110.507 15.86H113.867C113.811 16.4387 113.755 17.0267 113.699 17.624C113.661 18.2213 113.643 18.8093 113.643 19.388V30H110.171L110.143 27.088H110.479C110.18 28.0587 109.573 28.8333 108.659 29.412C107.744 29.9907 106.708 30.28 105.551 30.28ZM106.531 27.592C107.632 27.592 108.519 27.2093 109.191 26.444C109.863 25.66 110.199 24.484 110.199 22.916C110.199 21.348 109.863 20.1813 109.191 19.416C108.519 18.6507 107.632 18.268 106.531 18.268C105.429 18.268 104.543 18.6507 103.871 19.416C103.199 20.1813 102.863 21.348 102.863 22.916C102.863 24.484 103.189 25.66 103.843 26.444C104.515 27.2093 105.411 27.592 106.531 27.592ZM103.031 13.648L101.295 13.536C101.388 12.2107 101.743 11.1933 102.359 10.484C102.975 9.756 103.74 9.392 104.655 9.392C105.065 9.392 105.448 9.476 105.803 9.644C106.157 9.812 106.559 10.064 107.007 10.4C107.399 10.6987 107.716 10.9133 107.959 11.044C108.22 11.1747 108.472 11.24 108.715 11.24C109.648 11.24 110.217 10.5867 110.423 9.28L112.159 9.392C112.084 10.7173 111.739 11.744 111.123 12.472C110.507 13.1813 109.741 13.536 108.827 13.536C108.416 13.536 108.024 13.452 107.651 13.284C107.296 13.116 106.885 12.8547 106.419 12.5C106.064 12.2013 105.756 11.996 105.495 11.884C105.252 11.7533 105 11.688 104.739 11.688C104.235 11.688 103.843 11.8653 103.563 12.22C103.301 12.556 103.124 13.032 103.031 13.648ZM123.838 30.28C122.382 30.28 121.122 29.9813 120.058 29.384C118.994 28.7867 118.163 27.9373 117.566 26.836C116.987 25.7347 116.698 24.428 116.698 22.916C116.698 21.404 116.987 20.1067 117.566 19.024C118.163 17.9227 118.994 17.0733 120.058 16.476C121.122 15.8787 122.382 15.58 123.838 15.58C125.294 15.58 126.554 15.8787 127.618 16.476C128.7 17.0733 129.531 17.9227 130.11 19.024C130.707 20.1067 131.006 21.404 131.006 22.916C131.006 24.428 130.707 25.7347 130.11 26.836C129.531 27.9373 128.7 28.7867 127.618 29.384C126.554 29.9813 125.294 30.28 123.838 30.28ZM123.838 27.592C124.939 27.592 125.816 27.2093 126.47 26.444C127.123 25.66 127.45 24.484 127.45 22.916C127.45 21.348 127.123 20.1813 126.47 19.416C125.816 18.6507 124.939 18.268 123.838 18.268C122.736 18.268 121.859 18.6507 121.206 19.416C120.552 20.1813 120.226 21.348 120.226 22.916C120.226 24.484 120.552 25.66 121.206 26.444C121.859 27.2093 122.736 27.592 123.838 27.592ZM133.113 30V26.108H137.033V30H133.113ZM145.828 30.28C144.596 30.28 143.513 29.9907 142.58 29.412C141.647 28.8147 140.919 27.9653 140.396 26.864C139.873 25.7627 139.612 24.4467 139.612 22.916C139.612 21.3853 139.873 20.0787 140.396 18.996C140.919 17.8947 141.647 17.0547 142.58 16.476C143.513 15.8787 144.596 15.58 145.828 15.58C147.023 15.58 148.068 15.8787 148.964 16.476C149.879 17.0547 150.485 17.8387 150.784 18.828H150.476L150.784 15.86H154.144C154.088 16.4387 154.032 17.0267 153.976 17.624C153.939 18.2213 153.92 18.8093 153.92 19.388V30H150.448L150.42 27.088H150.756C150.457 28.0587 149.851 28.8333 148.936 29.412C148.021 29.9907 146.985 30.28 145.828 30.28ZM146.808 27.592C147.909 27.592 148.796 27.2093 149.468 26.444C150.14 25.66 150.476 24.484 150.476 22.916C150.476 21.348 150.14 20.1813 149.468 19.416C148.796 18.6507 147.909 18.268 146.808 18.268C145.707 18.268 144.82 18.6507 144.148 19.416C143.476 20.1813 143.14 21.348 143.14 22.916C143.14 24.484 143.467 25.66 144.12 26.444C144.792 27.2093 145.688 27.592 146.808 27.592ZM157.731 30V15.86H161.231V30H157.731ZM157.535 13.2V9.784H161.427V13.2H157.535Z" fill="white"/>
</svg>
