<svg width="155" height="40" viewBox="0 0 155 40" fill="none" xmlns="http://www.w3.org/2000/svg">
<path d="M25.8555 20.1219C25.8555 23.4874 23.1272 26.2156 19.7617 26.2156C16.3962 26.2156 13.668 23.4874 13.668 20.1219C13.668 16.7564 16.3962 14.0281 19.7617 14.0281H25.8555M25.8555 14.0281H35.75C36.4445 15.8868 36.8242 17.8991 36.8242 20C36.8242 29.4234 29.1851 37.0625 19.7617 37.0625C10.3384 37.0625 2.69922 29.4234 2.69922 20C2.69922 10.5766 10.3384 2.9375 19.7617 2.9375C21.9087 2.9375 23.963 3.33403 25.8555 4.05785V14.0281Z" stroke="#55B02E" stroke-width="2.49844"/>
<path d="M55.6665 29.9485C53.7327 29.9485 52.1077 29.591 50.7915 28.876C49.4752 28.161 48.484 27.1453 47.8177 25.8291C47.1515 24.5128 46.8184 22.9528 46.8184 21.1491C46.8184 19.3291 47.1759 17.761 47.8909 16.4447C48.6059 15.1122 49.6296 14.0885 50.9621 13.3735C52.3109 12.6422 53.9277 12.2766 55.8127 12.2766C57.064 12.2766 58.1609 12.4472 59.1034 12.7885C60.0459 13.1135 60.8746 13.5928 61.5896 14.2266L60.5415 16.6641C60.0215 16.2578 59.5259 15.9328 59.0546 15.6891C58.5834 15.4453 58.0959 15.2747 57.5921 15.1772C57.0884 15.0635 56.5034 15.0066 55.8371 15.0066C53.9521 15.0066 52.5221 15.5428 51.5471 16.6153C50.5884 17.6716 50.109 19.191 50.109 21.1735C50.109 23.156 50.564 24.6672 51.474 25.7072C52.4002 26.7472 53.8465 27.2672 55.8127 27.2672C56.479 27.2672 57.1452 27.2022 57.8115 27.0722C58.494 26.9422 59.1602 26.7553 59.8102 26.5116L59.2252 27.8278V22.6847H55.2034V20.3935H61.8334V28.6566C61.0371 29.0628 60.0865 29.3797 58.9815 29.6072C57.8765 29.8347 56.7715 29.9485 55.6665 29.9485ZM71.126 29.9485C69.0622 29.9485 67.4453 29.3797 66.2753 28.2422C65.1053 27.1047 64.5203 25.5447 64.5203 23.5622C64.5203 22.2785 64.7722 21.1572 65.276 20.1985C65.7797 19.2397 66.4785 18.4922 67.3722 17.956C68.2822 17.4197 69.3385 17.1516 70.541 17.1516C71.7272 17.1516 72.7185 17.4035 73.5147 17.9072C74.311 18.411 74.9122 19.1178 75.3185 20.0278C75.741 20.9378 75.9522 22.0022 75.9522 23.221V24.0253H66.9822V22.4166H73.7828L73.3685 22.7578C73.3685 21.6203 73.1247 20.751 72.6372 20.1497C72.166 19.5485 71.4753 19.2478 70.5653 19.2478C69.5578 19.2478 68.7778 19.6053 68.2253 20.3203C67.6891 21.0353 67.421 22.0347 67.421 23.3185V23.6353C67.421 24.9678 67.746 25.9672 68.396 26.6335C69.0622 27.2835 69.9966 27.6085 71.1991 27.6085C71.8978 27.6085 72.5478 27.5191 73.1491 27.3403C73.7666 27.1453 74.3516 26.8366 74.9041 26.4141L75.806 28.4616C75.221 28.9328 74.5222 29.2985 73.7097 29.5585C72.8972 29.8185 72.036 29.9485 71.126 29.9485ZM82.9198 29.9485C81.8636 29.9485 80.8886 29.8266 79.9948 29.5828C79.1173 29.3228 78.378 28.9653 77.7767 28.5103L78.6298 26.4628C79.2473 26.8853 79.9298 27.2103 80.6773 27.4378C81.4248 27.6653 82.1805 27.7791 82.9442 27.7791C83.7567 27.7791 84.358 27.641 84.748 27.3647C85.1542 27.0885 85.3573 26.7147 85.3573 26.2435C85.3573 25.8697 85.2273 25.5772 84.9673 25.366C84.7236 25.1385 84.3255 24.9678 83.773 24.8541L81.3355 24.391C80.2955 24.1635 79.4992 23.7735 78.9467 23.221C78.4105 22.6685 78.1423 21.9453 78.1423 21.0516C78.1423 20.2878 78.3455 19.6135 78.7517 19.0285C79.1742 18.4435 79.7673 17.9885 80.5311 17.6635C81.3111 17.3222 82.2211 17.1516 83.2611 17.1516C84.1711 17.1516 85.0242 17.2735 85.8205 17.5172C86.633 17.761 87.3155 18.1266 87.868 18.6141L86.9905 20.5885C86.4867 20.1822 85.9098 19.8653 85.2598 19.6378C84.6098 19.4103 83.9761 19.2966 83.3586 19.2966C82.5136 19.2966 81.8961 19.451 81.5061 19.7597C81.1161 20.0522 80.9211 20.4341 80.9211 20.9053C80.9211 21.2628 81.0348 21.5635 81.2623 21.8072C81.5061 22.0347 81.8798 22.2053 82.3836 22.3191L84.8211 22.7822C85.9098 22.9935 86.7305 23.3672 87.283 23.9035C87.8517 24.4235 88.1361 25.1385 88.1361 26.0485C88.1361 26.861 87.9167 27.5597 87.478 28.1447C87.0392 28.7297 86.4298 29.1766 85.6498 29.4853C84.8698 29.7941 83.9598 29.9485 82.9198 29.9485ZM95.8896 29.9485C94.4271 29.9485 93.3221 29.5666 92.5746 28.8028C91.8271 28.0391 91.4534 26.8935 91.4534 25.366V19.6866H89.089V17.3953H91.4534V14.251L94.5002 13.471V17.3953H97.7909V19.6866H94.5002V25.171C94.5002 26.016 94.6627 26.6091 94.9877 26.9503C95.3127 27.2916 95.7596 27.4622 96.3284 27.4622C96.6371 27.4622 96.8971 27.4378 97.1084 27.3891C97.3359 27.3403 97.5552 27.2753 97.7665 27.1941V29.6072C97.4902 29.721 97.1815 29.8022 96.8402 29.851C96.5152 29.916 96.1984 29.9485 95.8896 29.9485ZM104.613 29.9485C103.541 29.9485 102.598 29.6966 101.786 29.1928C100.973 28.6728 100.34 27.9335 99.8848 26.9747C99.4298 26.016 99.2023 24.8703 99.2023 23.5378C99.2023 22.2053 99.4298 21.0678 99.8848 20.1253C100.34 19.1666 100.973 18.4353 101.786 17.9316C102.598 17.4116 103.541 17.1516 104.613 17.1516C105.653 17.1516 106.563 17.4116 107.343 17.9316C108.14 18.4353 108.668 19.1178 108.928 19.9791H108.66L108.928 17.3953H111.853C111.804 17.8991 111.755 18.411 111.707 18.931C111.674 19.451 111.658 19.9628 111.658 20.4666V29.7047H108.635L108.611 27.1697H108.903C108.643 28.0147 108.115 28.6891 107.319 29.1928C106.523 29.6966 105.621 29.9485 104.613 29.9485ZM105.467 27.6085C106.425 27.6085 107.197 27.2753 107.782 26.6091C108.367 25.9266 108.66 24.9028 108.66 23.5378C108.66 22.1728 108.367 21.1572 107.782 20.491C107.197 19.8247 106.425 19.4916 105.467 19.4916C104.508 19.4916 103.736 19.8247 103.151 20.491C102.566 21.1572 102.273 22.1728 102.273 23.5378C102.273 24.9028 102.558 25.9266 103.127 26.6091C103.712 27.2753 104.492 27.6085 105.467 27.6085ZM102.42 15.4697L100.908 15.3722C100.99 14.2185 101.298 13.3328 101.835 12.7153C102.371 12.0816 103.037 11.7647 103.833 11.7647C104.191 11.7647 104.524 11.8378 104.833 11.9841C105.142 12.1303 105.491 12.3497 105.881 12.6422C106.222 12.9022 106.498 13.0891 106.71 13.2028C106.937 13.3166 107.157 13.3735 107.368 13.3735C108.18 13.3735 108.676 12.8047 108.855 11.6672L110.366 11.7647C110.301 12.9185 110 13.8122 109.464 14.446C108.928 15.0635 108.262 15.3722 107.465 15.3722C107.108 15.3722 106.767 15.2991 106.442 15.1528C106.133 15.0066 105.775 14.7791 105.369 14.4703C105.06 14.2103 104.792 14.0316 104.565 13.9341C104.353 13.8203 104.134 13.7635 103.907 13.7635C103.468 13.7635 103.127 13.9178 102.883 14.2266C102.655 14.5191 102.501 14.9335 102.42 15.4697ZM120.533 29.9485C119.266 29.9485 118.169 29.6885 117.242 29.1685C116.316 28.6485 115.593 27.9091 115.073 26.9503C114.569 25.9916 114.317 24.8541 114.317 23.5378C114.317 22.2216 114.569 21.0922 115.073 20.1497C115.593 19.191 116.316 18.4516 117.242 17.9316C118.169 17.4116 119.266 17.1516 120.533 17.1516C121.801 17.1516 122.897 17.4116 123.824 17.9316C124.766 18.4516 125.489 19.191 125.993 20.1497C126.513 21.0922 126.773 22.2216 126.773 23.5378C126.773 24.8541 126.513 25.9916 125.993 26.9503C125.489 27.9091 124.766 28.6485 123.824 29.1685C122.897 29.6885 121.801 29.9485 120.533 29.9485ZM120.533 27.6085C121.492 27.6085 122.256 27.2753 122.824 26.6091C123.393 25.9266 123.677 24.9028 123.677 23.5378C123.677 22.1728 123.393 21.1572 122.824 20.491C122.256 19.8247 121.492 19.4916 120.533 19.4916C119.574 19.4916 118.811 19.8247 118.242 20.491C117.673 21.1572 117.389 22.1728 117.389 23.5378C117.389 24.9028 117.673 25.9266 118.242 26.6091C118.811 27.2753 119.574 27.6085 120.533 27.6085ZM128.607 29.7047V26.3166H132.02V29.7047H128.607ZM139.676 29.9485C138.604 29.9485 137.661 29.6966 136.849 29.1928C136.036 28.6728 135.403 27.9335 134.948 26.9747C134.493 26.016 134.265 24.8703 134.265 23.5378C134.265 22.2053 134.493 21.0678 134.948 20.1253C135.403 19.1666 136.036 18.4353 136.849 17.9316C137.661 17.4116 138.604 17.1516 139.676 17.1516C140.716 17.1516 141.626 17.4116 142.406 17.9316C143.203 18.4353 143.731 19.1178 143.991 19.9791H143.723L143.991 17.3953H146.916C146.867 17.8991 146.818 18.411 146.769 18.931C146.737 19.451 146.721 19.9628 146.721 20.4666V29.7047H143.698L143.674 27.1697H143.966C143.706 28.0147 143.178 28.6891 142.382 29.1928C141.586 29.6966 140.684 29.9485 139.676 29.9485ZM140.529 27.6085C141.488 27.6085 142.26 27.2753 142.845 26.6091C143.43 25.9266 143.723 24.9028 143.723 23.5378C143.723 22.1728 143.43 21.1572 142.845 20.491C142.26 19.8247 141.488 19.4916 140.529 19.4916C139.571 19.4916 138.799 19.8247 138.214 20.491C137.629 21.1572 137.336 22.1728 137.336 23.5378C137.336 24.9028 137.621 25.9266 138.189 26.6091C138.774 27.2753 139.554 27.6085 140.529 27.6085ZM150.038 29.7047V17.3953H153.085V29.7047H150.038ZM149.868 15.0797V12.106H153.256V15.0797H149.868Z" fill="white"/>
</svg>
