<svg width="155" height="40" viewBox="0 0 155 40" fill="none" xmlns="http://www.w3.org/2000/svg">
<path d="M25.8555 20.1219C25.8555 23.4874 23.1272 26.2156 19.7617 26.2156C16.3962 26.2156 13.668 23.4874 13.668 20.1219C13.668 16.7564 16.3962 14.0281 19.7617 14.0281H25.8555M25.8555 14.0281H35.75C36.4445 15.8868 36.8242 17.8991 36.8242 20C36.8242 29.4234 29.1851 37.0625 19.7617 37.0625C10.3384 37.0625 2.69922 29.4234 2.69922 20C2.69922 10.5766 10.3384 2.9375 19.7617 2.9375C21.9087 2.9375 23.963 3.33403 25.8555 4.05785V14.0281Z" stroke="#55B02E" stroke-width="2.49844"/>
<path d="M55.6665 29.9483C53.7327 29.9483 52.1077 29.5908 50.7915 28.8758C49.4752 28.1608 48.484 27.1451 47.8177 25.8289C47.1515 24.5126 46.8184 22.9526 46.8184 21.1489C46.8184 19.3289 47.1759 17.7608 47.8909 16.4445C48.6059 15.112 49.6296 14.0883 50.9621 13.3733C52.3109 12.642 53.9277 12.2764 55.8127 12.2764C57.064 12.2764 58.1609 12.447 59.1034 12.7883C60.0459 13.1133 60.8746 13.5926 61.5896 14.2264L60.5415 16.6639C60.0215 16.2576 59.5259 15.9326 59.0546 15.6889C58.5834 15.4451 58.0959 15.2745 57.5921 15.177C57.0884 15.0633 56.5034 15.0064 55.8371 15.0064C53.9521 15.0064 52.5221 15.5426 51.5471 16.6151C50.5884 17.6714 50.109 19.1908 50.109 21.1733C50.109 23.1558 50.564 24.667 51.474 25.707C52.4002 26.747 53.8465 27.267 55.8127 27.267C56.479 27.267 57.1452 27.202 57.8115 27.072C58.494 26.942 59.1602 26.7551 59.8102 26.5114L59.2252 27.8276V22.6845H55.2034V20.3933H61.8334V28.6564C61.0371 29.0626 60.0865 29.3795 58.9815 29.607C57.8765 29.8345 56.7715 29.9483 55.6665 29.9483ZM71.126 29.9483C69.0622 29.9483 67.4453 29.3795 66.2753 28.242C65.1053 27.1045 64.5203 25.5445 64.5203 23.562C64.5203 22.2783 64.7722 21.157 65.276 20.1983C65.7797 19.2395 66.4785 18.492 67.3722 17.9558C68.2822 17.4195 69.3385 17.1514 70.541 17.1514C71.7272 17.1514 72.7185 17.4033 73.5147 17.907C74.311 18.4108 74.9122 19.1176 75.3185 20.0276C75.741 20.9376 75.9522 22.002 75.9522 23.2208V24.0251H66.9822V22.4164H73.7828L73.3685 22.7576C73.3685 21.6201 73.1247 20.7508 72.6372 20.1495C72.166 19.5483 71.4753 19.2476 70.5653 19.2476C69.5578 19.2476 68.7778 19.6051 68.2253 20.3201C67.6891 21.0351 67.421 22.0345 67.421 23.3183V23.6351C67.421 24.9676 67.746 25.967 68.396 26.6333C69.0622 27.2833 69.9966 27.6083 71.1991 27.6083C71.8978 27.6083 72.5478 27.5189 73.1491 27.3401C73.7666 27.1451 74.3516 26.8364 74.9041 26.4139L75.806 28.4614C75.221 28.9326 74.5222 29.2983 73.7097 29.5583C72.8972 29.8183 72.036 29.9483 71.126 29.9483ZM82.9198 29.9483C81.8636 29.9483 80.8886 29.8264 79.9948 29.5826C79.1173 29.3226 78.378 28.9651 77.7767 28.5101L78.6298 26.4626C79.2473 26.8851 79.9298 27.2101 80.6773 27.4376C81.4248 27.6651 82.1805 27.7789 82.9442 27.7789C83.7567 27.7789 84.358 27.6408 84.748 27.3645C85.1542 27.0883 85.3573 26.7145 85.3573 26.2433C85.3573 25.8695 85.2273 25.577 84.9673 25.3658C84.7236 25.1383 84.3255 24.9676 83.773 24.8539L81.3355 24.3908C80.2955 24.1633 79.4992 23.7733 78.9467 23.2208C78.4105 22.6683 78.1423 21.9451 78.1423 21.0514C78.1423 20.2876 78.3455 19.6133 78.7517 19.0283C79.1742 18.4433 79.7673 17.9883 80.5311 17.6633C81.3111 17.322 82.2211 17.1514 83.2611 17.1514C84.1711 17.1514 85.0242 17.2733 85.8205 17.517C86.633 17.7608 87.3155 18.1264 87.868 18.6139L86.9905 20.5883C86.4867 20.182 85.9098 19.8651 85.2598 19.6376C84.6098 19.4101 83.9761 19.2964 83.3586 19.2964C82.5136 19.2964 81.8961 19.4508 81.5061 19.7595C81.1161 20.052 80.9211 20.4339 80.9211 20.9051C80.9211 21.2626 81.0348 21.5633 81.2623 21.807C81.5061 22.0345 81.8798 22.2051 82.3836 22.3189L84.8211 22.782C85.9098 22.9933 86.7305 23.367 87.283 23.9033C87.8517 24.4233 88.1361 25.1383 88.1361 26.0483C88.1361 26.8608 87.9167 27.5595 87.478 28.1445C87.0392 28.7295 86.4298 29.1764 85.6498 29.4851C84.8698 29.7939 83.9598 29.9483 82.9198 29.9483ZM95.8896 29.9483C94.4271 29.9483 93.3221 29.5664 92.5746 28.8026C91.8271 28.0389 91.4534 26.8933 91.4534 25.3658V19.6864H89.089V17.3951H91.4534V14.2508L94.5002 13.4708V17.3951H97.7909V19.6864H94.5002V25.1708C94.5002 26.0158 94.6627 26.6089 94.9877 26.9501C95.3127 27.2914 95.7596 27.462 96.3284 27.462C96.6371 27.462 96.8971 27.4376 97.1084 27.3889C97.3359 27.3401 97.5552 27.2751 97.7665 27.1939V29.607C97.4902 29.7208 97.1815 29.802 96.8402 29.8508C96.5152 29.9158 96.1984 29.9483 95.8896 29.9483ZM104.613 29.9483C103.541 29.9483 102.598 29.6964 101.786 29.1926C100.973 28.6726 100.34 27.9333 99.8848 26.9745C99.4298 26.0158 99.2023 24.8701 99.2023 23.5376C99.2023 22.2051 99.4298 21.0676 99.8848 20.1251C100.34 19.1664 100.973 18.4351 101.786 17.9314C102.598 17.4114 103.541 17.1514 104.613 17.1514C105.653 17.1514 106.563 17.4114 107.343 17.9314C108.14 18.4351 108.668 19.1176 108.928 19.9789H108.66L108.928 17.3951H111.853C111.804 17.8989 111.755 18.4108 111.707 18.9308C111.674 19.4508 111.658 19.9626 111.658 20.4664V29.7045H108.635L108.611 27.1695H108.903C108.643 28.0145 108.115 28.6889 107.319 29.1926C106.523 29.6964 105.621 29.9483 104.613 29.9483ZM105.467 27.6083C106.425 27.6083 107.197 27.2751 107.782 26.6089C108.367 25.9264 108.66 24.9026 108.66 23.5376C108.66 22.1726 108.367 21.157 107.782 20.4908C107.197 19.8245 106.425 19.4914 105.467 19.4914C104.508 19.4914 103.736 19.8245 103.151 20.4908C102.566 21.157 102.273 22.1726 102.273 23.5376C102.273 24.9026 102.558 25.9264 103.127 26.6089C103.712 27.2751 104.492 27.6083 105.467 27.6083ZM102.42 15.4695L100.908 15.372C100.99 14.2183 101.298 13.3326 101.835 12.7151C102.371 12.0814 103.037 11.7645 103.833 11.7645C104.191 11.7645 104.524 11.8376 104.833 11.9839C105.142 12.1301 105.491 12.3495 105.881 12.642C106.222 12.902 106.498 13.0889 106.71 13.2026C106.937 13.3164 107.157 13.3733 107.368 13.3733C108.18 13.3733 108.676 12.8045 108.855 11.667L110.366 11.7645C110.301 12.9183 110 13.812 109.464 14.4458C108.928 15.0633 108.262 15.372 107.465 15.372C107.108 15.372 106.767 15.2989 106.442 15.1526C106.133 15.0064 105.775 14.7789 105.369 14.4701C105.06 14.2101 104.792 14.0314 104.565 13.9339C104.353 13.8201 104.134 13.7633 103.907 13.7633C103.468 13.7633 103.127 13.9176 102.883 14.2264C102.655 14.5189 102.501 14.9333 102.42 15.4695ZM120.533 29.9483C119.266 29.9483 118.169 29.6883 117.242 29.1683C116.316 28.6483 115.593 27.9089 115.073 26.9501C114.569 25.9914 114.317 24.8539 114.317 23.5376C114.317 22.2214 114.569 21.092 115.073 20.1495C115.593 19.1908 116.316 18.4514 117.242 17.9314C118.169 17.4114 119.266 17.1514 120.533 17.1514C121.801 17.1514 122.897 17.4114 123.824 17.9314C124.766 18.4514 125.489 19.1908 125.993 20.1495C126.513 21.092 126.773 22.2214 126.773 23.5376C126.773 24.8539 126.513 25.9914 125.993 26.9501C125.489 27.9089 124.766 28.6483 123.824 29.1683C122.897 29.6883 121.801 29.9483 120.533 29.9483ZM120.533 27.6083C121.492 27.6083 122.256 27.2751 122.824 26.6089C123.393 25.9264 123.677 24.9026 123.677 23.5376C123.677 22.1726 123.393 21.157 122.824 20.4908C122.256 19.8245 121.492 19.4914 120.533 19.4914C119.574 19.4914 118.811 19.8245 118.242 20.4908C117.673 21.157 117.389 22.1726 117.389 23.5376C117.389 24.9026 117.673 25.9264 118.242 26.6089C118.811 27.2751 119.574 27.6083 120.533 27.6083ZM128.607 29.7045V26.3164H132.02V29.7045H128.607ZM139.676 29.9483C138.604 29.9483 137.661 29.6964 136.849 29.1926C136.036 28.6726 135.403 27.9333 134.948 26.9745C134.493 26.0158 134.265 24.8701 134.265 23.5376C134.265 22.2051 134.493 21.0676 134.948 20.1251C135.403 19.1664 136.036 18.4351 136.849 17.9314C137.661 17.4114 138.604 17.1514 139.676 17.1514C140.716 17.1514 141.626 17.4114 142.406 17.9314C143.203 18.4351 143.731 19.1176 143.991 19.9789H143.723L143.991 17.3951H146.916C146.867 17.8989 146.818 18.4108 146.769 18.9308C146.737 19.4508 146.721 19.9626 146.721 20.4664V29.7045H143.698L143.674 27.1695H143.966C143.706 28.0145 143.178 28.6889 142.382 29.1926C141.586 29.6964 140.684 29.9483 139.676 29.9483ZM140.529 27.6083C141.488 27.6083 142.26 27.2751 142.845 26.6089C143.43 25.9264 143.723 24.9026 143.723 23.5376C143.723 22.1726 143.43 21.157 142.845 20.4908C142.26 19.8245 141.488 19.4914 140.529 19.4914C139.571 19.4914 138.799 19.8245 138.214 20.4908C137.629 21.157 137.336 22.1726 137.336 23.5376C137.336 24.9026 137.621 25.9264 138.189 26.6089C138.774 27.2751 139.554 27.6083 140.529 27.6083ZM150.038 29.7045V17.3951H153.085V29.7045H150.038ZM149.868 15.0795V12.1058H153.256V15.0795H149.868Z" fill="white"/>
</svg>
